# xmcd
#
# Track frame offsets:
#	150
#	12998
#	25876
#	38548
#	52033
#	65474
#	79957
#	91153
#	104917
#	117735
#	132522
#	145522
#	158169
#	168191
#	179734
#	192497
#	204581
#	217068
#	230756
#	245355
#	257167
#	271353
#	283150
#	295570
#	307804
#	320495
#
# Disc length: 4425 seconds
#
# Revision: 1
# Processed by: cddbd v1.5.2PL0 Copyright (c) Steve Scherf et al.
# Submitted via: audiograbber 1.83.01
#
DISCID=8c11471a
DTITLE=Bob Dunn - Master of the Electric Steel Guitar, 1935-1950 - Disc 1
DYEAR=2010
DGENRE=Western Swing
TTITLE0=Milton Brown and his Brownies - Taking Off
TTITLE1=Milton Brown and his Brownies - I Love You
TTITLE2=Milton Brown and his Brownies - Wabash Blues
TTITLE3=Milton Brown and his Brownies - Who's Sorry Now
TTITLE4=Milton Brown and his Brownies - You're Tired of Me
TTITLE5=Milton Brown and his Brownies - The House at the End of the Lane
TTITLE6=Milton Brown and his Brownies - Somebody Stole My Gal
TTITLE7=Milton Brown and his Brownies - 'Ida!' Sweet as Apple Cider
TTITLE8=Milton Brown and his Brownies - Beale Street Mama
TTITLE9=Milton Brown and his Brownies - An Old Water Mill by a Waterfall
TTITLE10=Roy Newman and his Boys - Everybody's Blues
TTITLE11=Roy Newman and his Boys - She's Doggin' Me
TTITLE12=Roy Newman and his Boys - Takin' Off
TTITLE13=Roy Newman and his Boys - Catch On and Let's Go
TTITLE14=Cliff Bruner and his Texas Wanderers - Over Moonlit Waters
TTITLE15=Cliff Bruner and his Texas Wanderers - Yearning Just for You
TTITLE16=Cliff Bruner and his Texas Wanderers - When You're Smiling (The Whole Wo
TTITLE16=rld Smiles With You)
TTITLE17=Cliff Bruner and his Texas Wanderers - I'll Keep On Loving You
TTITLE18=Cliff Bruner and his Boys - Star Dust
TTITLE19=Buddy Jones - Easy Rider, Easy Rider
TTITLE20=Shelton Brothers (Bob and Joe) - Just Because
TTITLE21=Leon Selph and his Blue Ridge Playboys - A Precious Memory
TTITLE22=Leon Selph and his Blue Ridge Playboys - Some Day
TTITLE23=Bob Dunn's Vagabonds - Mama's Gone Goodbye
TTITLE24=Bob Dunn's Vagabonds - Blue Skies
TTITLE25=Bob Dunn's Vagabonds - Mean Mistreater
EXTD=
EXTT0=
EXTT1=
EXTT2=
EXTT3=
EXTT4=
EXTT5=
EXTT6=
EXTT7=
EXTT8=
EXTT9=
EXTT10=
EXTT11=
EXTT12=
EXTT13=
EXTT14=
EXTT15=
EXTT16=
EXTT17=
EXTT18=
EXTT19=
EXTT20=
EXTT21=
EXTT22=
EXTT23=
EXTT24=
EXTT25=
PLAYORDER=
